Coordinates
version=1
nRows=51
nColumns=19
inDegrees=yes

Units are S.I. units (second, meters, Newtons, ...)
Angles are in degrees.

endheader
time	1_Force_X	1_Force_Y	1_Force_Z	1_Moment_X	1_Moment_Y	1_Moment_Z	1_COP_X	1_COP_Y	1_COP_Z	2_Force_X	2_Force_Y	2_Force_Z	2_Moment_X	2_Moment_Y	2_Moment_Z	2_COP_X	2_COP_Y	2_COP_Z
1.0850	-1.337	-2.779	0.933	-0.240	0.000	0.418	-7.438	0.014	-2.209	-0.215	0.000	0.263	0.00000	-0.64818	0.00000	0.00000	3759.42251	0.00000
1.0875	-1.735	-0.340	1.152	-0.226	0.000	0.390	-7.741	0.698	-2.557	-0.215	0.000	0.264	0.00000	-2.68092	0.00000	0.00000	80.27577	0.00000
1.0900	-1.557	-1.215	0.709	-0.249	0.000	0.392	-7.566	0.694	-2.777	-0.216	0.000	0.263	0.00000	-1.41385	0.00000	0.00000	75.63846	0.00000
1.0925	-1.424	-1.040	1.151	-0.235	0.000	0.394	-7.653	0.697	-2.734	-0.215	0.000	0.262	0.00000	-1.00008	0.00000	0.00000	76.04430	0.00000
1.0950	-1.776	-0.861	1.020	-0.251	0.000	0.393	-7.828	0.869	-2.689	-0.215	0.000	0.264	0.00000	-1.73851	0.00000	0.00000	65.46475	0.00000
1.0975	-1.468	-1.041	1.018	-0.237	0.000	0.402	-7.567	1.556	-2.601	-0.216	0.000	0.260	0.00000	-1.09686	0.00000	0.00000	36.13949	0.00000
1.1000	-1.426	-2.085	0.975	-0.241	0.000	0.386	-7.441	0.357	-1.946	-0.214	0.000	0.264	0.00000	-0.86958	0.00000	0.00000	154.44940	0.00000
1.1025	-1.298	-1.568	0.884	-0.230	0.000	0.368	-7.312	-0.160	-1.862	-0.213	0.000	0.261	0.00000	-0.98234	0.00000	0.00000	-317.86685	0.00000
1.1050	-1.777	-0.864	1.152	-0.237	0.000	0.385	-7.746	1.213	-2.167	-0.213	0.000	0.260	0.00000	-1.64078	0.00000	0.00000	48.22548	0.00000
1.1075	-1.382	-0.695	0.973	-0.227	0.000	0.392	-7.531	1.556	-1.903	-0.214	0.000	0.258	0.00000	-1.29994	0.00000	0.00000	38.01270	0.00000
1.1100	-1.253	-1.917	1.061	-0.221	0.000	0.378	-7.270	0.528	-1.595	-0.214	0.000	0.263	0.00000	-0.72009	0.00000	0.00000	106.61542	0.00000
1.1125	-1.384	-1.393	1.017	-0.226	0.000	0.377	-7.226	-0.331	-1.641	-0.213	0.000	0.264	0.00000	-0.98951	0.00000	0.00000	-156.92145	0.00000
1.1150	-1.383	-1.390	1.018	-0.232	0.000	0.385	-7.664	0.187	-1.338	-0.215	0.000	0.261	0.00000	-0.95148	0.00000	0.00000	314.02669	0.00000
1.1175	-1.120	-1.395	1.149	-0.218	0.000	0.383	-7.315	0.870	-1.553	-0.215	0.000	0.260	0.00000	-0.59389	0.00000	0.00000	65.92319	0.00000
1.1200	-1.164	-1.916	0.885	-0.231	0.000	0.383	-7.271	0.526	-1.596	-0.215	0.000	0.262	0.00000	-0.75572	0.00000	0.00000	106.37182	0.00000
1.1225	-1.378	-1.210	1.549	-0.241	0.000	0.394	-7.356	1.728	-1.855	-0.216	0.000	0.261	0.00000	-0.66840	0.00000	0.00000	34.84411	0.00000
1.1250	-1.511	-1.902	1.154	-0.254	0.000	0.408	-7.352	1.555	-2.293	-0.215	0.000	0.260	0.00000	-0.76546	0.00000	0.00000	36.26556	0.00000
1.1275	-1.601	-1.212	0.887	-0.247	0.000	0.395	-7.438	1.725	-2.555	-0.216	0.000	0.260	0.00000	-1.28907	0.00000	0.00000	32.70883	0.00000
1.1300	-1.291	-1.387	1.196	-0.238	0.000	0.408	-7.525	-0.163	-2.473	-0.214	0.000	0.264	0.00000	-0.66649	0.00000	0.00000	-307.03984	0.00000
1.1325	-1.647	-1.042	1.019	-0.224	0.000	0.390	-7.787	0.178	-2.605	-0.215	0.000	0.264	0.00000	-1.29245	0.00000	0.00000	299.66585	0.00000
1.1350	-1.687	-1.039	1.107	-0.243	0.000	0.394	-7.699	1.383	-2.381	-0.218	0.000	0.262	0.00000	-1.39118	0.00000	0.00000	43.00875	0.00000
1.1375	-1.206	-1.048	1.279	-0.224	0.000	0.357	-7.351	0.014	-2.120	-0.214	0.000	0.265	0.00000	-0.91849	0.00000	0.00000	3609.28602	0.00000
1.1400	-1.211	-1.918	0.620	-0.221	0.000	0.389	-7.438	0.356	-2.252	-0.216	0.000	0.262	0.00000	-0.86862	0.00000	0.00000	148.46983	0.00000
1.1425	-1.339	-2.264	0.973	-0.234	0.000	0.381	-7.307	0.528	-2.118	-0.217	0.000	0.264	0.00000	-0.84296	0.00000	0.00000	103.03828	0.00000
1.1450	-1.512	-1.731	0.933	-0.250	0.000	0.409	-7.304	1.554	-2.773	-0.216	0.000	0.261	0.00000	-0.87792	0.00000	0.00000	34.40148	0.00000
1.1475	-1.557	-0.172	1.238	-0.222	0.000	0.384	-7.436	0.350	-2.734	-0.213	0.000	0.263	0.00000	-3.78310	0.00000	0.00000	141.98933	0.00000
1.1500	-1.424	-1.041	1.106	-0.235	0.000	0.397	-7.743	0.696	-2.562	-0.213	0.000	0.260	0.00000	-1.01296	0.00000	0.00000	76.87257	0.00000
1.1525	-1.601	-0.344	1.150	-0.231	0.000	0.380	-7.350	1.725	-2.599	-0.216	0.000	0.260	0.00000	-2.75493	0.00000	0.00000	32.10415	0.00000
1.1550	-1.511	-1.212	1.107	-0.244	0.000	0.397	-7.526	0.524	-2.429	-0.214	0.000	0.261	0.00000	-1.07348	0.00000	0.00000	100.26568	0.00000
1.1575	-1.513	-1.216	1.106	-0.235	0.000	0.380	-7.355	0.184	-1.813	-0.216	0.000	0.266	0.00000	-1.17650	0.00000	0.00000	301.97810	0.00000
1.1600	-1.207	-2.088	0.929	-0.238	0.000	0.386	-7.443	0.355	-1.815	-0.214	0.000	0.263	0.00000	-0.75855	0.00000	0.00000	157.21636	0.00000
1.1625	-1.429	-1.391	0.842	-0.224	0.000	0.390	-7.313	0.181	-1.816	-0.216	0.000	0.262	0.00000	-1.00991	0.00000	0.00000	294.45170	0.00000
1.1650	-1.515	-1.562	0.887	-0.233	0.000	0.404	-7.443	1.039	-1.990	-0.214	0.000	0.261	0.00000	-0.94256	0.00000	0.00000	54.58319	0.00000
1.1675	-1.471	-0.868	1.062	-0.230	0.000	0.375	-7.488	0.868	-1.771	-0.214	0.000	0.262	0.00000	-1.37477	0.00000	0.00000	67.25541	0.00000
1.1700	-1.649	-0.173	0.929	-0.218	0.000	0.368	-7.793	1.209	-1.991	-0.215	0.000	0.261	0.00000	-6.32980	0.00000	0.00000	50.13266	0.00000
1.1725	-1.424	-0.343	1.151	-0.232	0.000	0.396	-7.484	1.725	-2.162	-0.217	0.000	0.261	0.00000	-1.80591	0.00000	0.00000	34.51612	0.00000
1.1750	-1.647	-0.171	1.062	-0.226	0.000	0.376	-7.530	1.039	-1.944	-0.215	0.000	0.264	0.00000	-5.64577	0.00000	0.00000	57.18796	0.00000
1.1775	-1.337	-1.392	1.238	-0.225	0.000	0.389	-7.355	0.356	-1.815	-0.214	0.000	0.263	0.00000	-0.74893	0.00000	0.00000	154.59551	0.00000
1.1800	-1.340	-1.739	0.930	-0.230	0.000	0.388	-7.441	0.353	-2.077	-0.215	0.000	0.263	0.00000	-0.83155	0.00000	0.00000	153.55912	0.00000
1.1825	-1.298	-1.219	0.973	-0.223	0.000	0.368	-6.959	-0.162	-2.339	-0.214	0.000	0.263	0.00000	-1.01494	0.00000	0.00000	-280.54337	0.00000
1.1850	-1.208	-1.222	1.148	-0.218	0.000	0.374	-7.047	0.014	-1.988	-0.214	0.000	0.264	0.00000	-0.77111	0.00000	0.00000	3657.07394	0.00000
1.1875	-1.297	-2.785	0.798	-0.234	0.000	0.391	-7.220	0.354	-2.294	-0.215	0.000	0.263	0.00000	-0.74767	0.00000	0.00000	144.03254	0.00000
1.1900	-1.557	-2.433	1.019	-0.241	0.000	0.389	-7.308	0.185	-2.164	-0.214	0.000	0.264	0.00000	-0.89352	0.00000	0.00000	281.47816	0.00000
1.1925	-1.428	-0.514	0.976	-0.227	0.000	0.402	-7.393	0.867	-2.645	-0.215	0.000	0.262	0.00000	-1.36185	0.00000	0.00000	59.96955	0.00000
1.1950	-1.645	-1.904	0.845	-0.248	0.000	0.409	-7.437	2.069	-2.467	-0.218	0.000	0.260	0.00000	-0.94290	0.00000	0.00000	28.33310	0.00000
1.1975	-1.296	-1.222	1.059	-0.230	0.000	0.357	-7.175	0.010	-2.471	-0.214	0.000	0.263	0.00000	-1.13379	0.00000	0.00000	4569.63852	0.00000
1.2000	-1.472	-2.261	0.887	-0.233	0.000	0.389	-7.220	0.525	-2.339	-0.214	0.000	0.262	0.00000	-0.87764	0.00000	0.00000	96.70289	0.00000
1.2025	-1.516	-0.520	0.797	-0.233	0.000	0.382	-7.524	0.867	-2.647	-0.214	0.000	0.260	0.00000	-2.29745	0.00000	0.00000	60.48909	0.00000
1.2050	-1.558	-1.213	1.019	-0.238	0.000	0.391	-7.222	0.866	-2.339	-0.214	0.000	0.261	0.00000	-1.16121	0.00000	0.00000	59.64867	0.00000
1.2075	-1.601	0.006	0.974	-0.236	0.000	0.392	-7.482	0.521	-2.559	-0.214	0.000	0.263	0.00000	139.64871	0.00000	0.00000	99.89954	0.00000
1.2100	-1.426	-0.345	1.194	-0.222	0.000	0.384	-7.569	1.727	-2.382	-0.217	0.000	0.258	0.00000	-1.83178	0.00000	0.00000	33.56267	0.00000
